<?xml version="1.0" encoding="utf-8"?>
<!-- Generator: Adobe Illustrator 15.0.2, SVG Export Plug-In  -->
<!DOCTYPE svg PUBLIC "-//W3C//DTD SVG 1.1//EN" "http://www.w3.org/Graphics/SVG/1.1/DTD/svg11.dtd" [
	<!ENTITY ns_flows "http://ns.adobe.com/Flows/1.0/">
]>
<svg version="1.1"
	 xmlns="http://www.w3.org/2000/svg" xmlns:xlink="http://www.w3.org/1999/xlink" xmlns:a="http://ns.adobe.com/AdobeSVGViewerExtensions/3.0/"
	 x="0px" y="0px" width="800px" height="362px" viewBox="-5.129 -9.614 800 362"
	 overflow="visible" enable-background="new -5.129 -9.614 800 362" xml:space="preserve">
<defs>
</defs>
<path fill-rule="evenodd" clip-rule="evenodd" fill="#32363F" d="M55.601,275.5v11.642H32.147c-4.17,0-7.473,0.987-9.938,2.976
	c-2.449,1.976-4.016,4.201-4.715,6.62c-0.707,2.426-1.198,4.663-1.513,6.706c-0.314,2.05-0.476,4.085-0.476,6.111v1.222v1.041
	c0,0.883,0.031,1.848,0.093,2.891c0.069,1.041,0.192,2.298,0.383,3.778c0.185,1.489,0.623,3.081,1.275,4.784
	c0.661,1.698,1.582,3.274,2.781,4.715c1.574,1.656,3.279,2.67,5.099,3.072c1.812,0.425,4.17,0.629,7.073,0.629h23.393v11.817H31.656
	c-4.523,0-8.363-0.402-11.535-1.186c-3.179-0.79-6.374-2.372-9.576-4.766c-3.832-3.29-6.573-7.225-8.164-11.83
	C0.806,321.126,0,316.137,0,310.776v-4.054c0-2.468,0.238-4.871,0.738-7.211c0.514-2.314,1.151-4.532,1.896-6.613
	c0.761-2.078,1.636-3.902,2.642-5.484c1.03-1.57,2.504-3.331,4.462-5.297c1.951-1.943,4.324-3.389,7.088-4.303
	c2.765-0.914,5.368-1.528,7.81-1.841c2.412-0.322,4.854-0.474,7.319-0.474H55.601L55.601,275.5z M98.639,343.504H81.235
	L58.734,275.5h15.145l15.667,52.31L102.9,275.5h16.833l15.321,52.31l14.576-52.31H164.2l-20.804,68.004h-17.61l-14.376-50.605
	L98.639,343.504L98.639,343.504z M170.812,275.5h14.937v68.004h-14.937V275.5L170.812,275.5z M247.985,275.5h37.569v12.204h-35.311
	c-7.411,0-11.15,2.97-11.15,8.89c0,2.519,0.859,4.351,2.557,5.484c1.643,1.264,3.825,1.886,6.527,1.886h18.815
	c3.671,0,6.904,0.263,9.752,0.762c2.581,0.56,5.246,2.097,7.996,4.596c2.741,2.491,4.107,7.103,4.107,13.851
	c0,1.834-0.137,3.517-0.422,5.06c-0.284,1.538-0.859,3.354-1.705,5.431c-0.844,2.081-2.311,3.929-4.339,5.501
	c-2.049,1.572-4.507,2.68-7.34,3.309c-2.589,0.697-5.922,1.032-10.031,1.032H226.99v-12.2h35.763c3.534,0,6.26-0.521,8.179-1.554
	c1.928-1.045,2.888-3.017,2.888-5.917v-1.415c-0.2-1.957-0.7-3.386-1.521-4.265c-1.075-0.939-2.289-1.582-3.647-1.898
	c-1.36-0.305-3.003-0.457-4.884-0.457h-16.872c-7.258,0-12.864-1.512-16.82-4.546c-3.946-3.029-5.905-8.096-5.905-15.237
	c0-3.576,0.577-6.811,1.782-9.644c1.206-2.826,2.842-5.024,4.923-6.575c2.074-1.544,4.479-2.62,7.181-3.247
	C240.52,275.843,243.83,275.5,247.985,275.5L247.985,275.5z M311.735,299.333c-0.745,3.033-1.128,6.374-1.128,10.023
	c0,3.6,0.621,7.825,1.851,12.722c1.221,4.891,3.677,7.988,7.326,9.276c3.655,1.282,6.749,1.94,9.276,1.94
	c2.458,0,4.808-0.354,7.082-1.058c5.421-1.956,8.808-6.083,10.122-12.377c0.884-3.209,1.32-6.62,1.32-10.207
	c0-3.662-0.291-6.651-0.913-8.937c-0.561-2.32-1.007-3.771-1.215-4.408c-0.214-0.639-0.69-1.592-1.427-2.88
	c-0.706-1.287-1.728-2.551-3.065-3.753c-1.312-1.179-2.733-2.017-4.192-2.499c-1.489-0.47-2.827-0.806-4.033-0.991
	c-1.212-0.191-2.426-0.291-3.679-0.291c-2.349,0-4.654,0.353-6.911,1.049C317.218,288.714,313.761,292.841,311.735,299.333
	L311.735,299.333z M297.166,294.517c1.467-4.975,3.411-8.673,5.875-11.073c2.465-2.403,4.738-4.146,6.813-5.248
	c2.073-1.113,4.277-1.963,6.573-2.561c2.303-0.6,4.362-0.984,6.198-1.183c1.827-0.188,3.932-0.277,6.335-0.277
	c4.539,0,8.109,0.331,10.737,0.999c2.618,0.652,4.416,1.142,5.391,1.452c0.975,0.329,2.357,0.959,4.153,1.949
	c1.798,0.976,3.387,2.225,4.763,3.74c3.225,3.084,5.566,7.108,7.003,12.057c1.451,4.954,2.188,10.005,2.188,15.183
	c0,5.108-0.737,10.19-2.188,15.267c-1.438,5.085-3.803,9.161-7.119,12.245c-3.326,3.107-7.219,5.182-11.667,6.266
	c-4.499,1.048-8.854,1.592-13.086,1.592c-4.216,0-8.279-0.48-12.194-1.42c-1.328-0.24-2.535-0.582-3.633-0.994
	c-1.114-0.409-2.48-1.045-4.117-1.924c-1.643-0.892-3.31-2.1-4.969-3.659c-1.682-1.538-3.086-3.334-4.261-5.416
	c-1.168-2.103-2.266-4.966-3.303-8.63c-1.044-3.644-1.574-8.163-1.574-13.524C295.085,304.111,295.791,299.177,297.166,294.517
	L297.166,294.517z M386.567,343.504H372.09v-31.206c0-4.731,0.223-8.887,0.652-12.441c0.455-3.563,1.352-7.318,2.705-11.26
	c1.351-3.932,4.361-7.109,9.032-9.507c4.66-2.388,11.71-3.59,21.088-3.59h21.771v11.823h-23.092c-2.773,0-5.353,0.308-7.749,0.953
	c-2.227,0.69-4.001,1.624-5.353,2.826c-1.351,1.188-2.303,2.599-2.873,4.206c-0.575,1.604-0.997,3.11-1.273,4.501
	c-0.301,1.39-0.43,2.769-0.43,4.154h40.77v11.629h-40.77V343.504L386.567,343.504z M466.382,343.504h-14.839v-55.998h-21.756
	v-11.817h58.559v11.817h-21.964V343.504L466.382,343.504z M527.681,343.504l12.771-50.605l14.383,50.605h17.596l20.788-68.004
	h-14.568l-14.553,52.31l-15.314-52.31h-16.849l-13.34,52.31l-15.697-52.31h-15.137l22.524,68.004H527.681L527.681,343.504z
	 M605.798,343.504h-15.137l28.585-68.004h15.114l29.058,68.004h-15.903l-6.236-16.272h-29.605L605.798,343.504L605.798,343.504z
	 M616.297,315.231h20.344l-10.322-26.027L616.297,315.231L616.297,315.231z M682.51,343.504h-14.275V275.5h35.088
	c1.768,0,3.58,0.087,5.431,0.272c1.867,0.201,3.947,0.562,6.252,1.102c2.312,0.535,4.463,1.794,6.473,3.775
	c2.026,1.988,3.51,4.28,4.463,6.856c0.799,2.781,1.236,5.62,1.236,8.509c0,3.222-0.492,6.122-1.438,8.711
	c-1.074,2.659-2.579,4.843-4.545,6.574c-1.95,1.735-4.507,2.986-7.655,3.74l16.739,28.464h-15.979l-15.03-26.568H682.51V343.504
	L682.51,343.504z M700.021,287.704H682.51v17.207h17.511c2.578,0,4.746-0.154,6.466-0.474c1.745-0.326,3.279-1.141,4.6-2.454
	c1.128-1.327,1.707-3.242,1.707-5.78c0-3.65-1.122-5.978-3.365-6.999C707.177,288.206,704.039,287.704,700.021,287.704
	L700.021,287.704z M790.518,275.5v11.823h-23.453c-5.102,0-9.062,1.33-11.874,4.016c-2.81,2.675-4.19,6.642-4.19,11.877h39.518
	v11.824H751c0,5.674,1.035,9.66,3.109,11.954c2.095,2.305,4.031,3.661,5.828,4.063c1.79,0.425,4.177,0.629,7.127,0.629h23.453
	v11.817h-24.006c-4.549,0-8.409-0.402-11.597-1.186c-3.181-0.79-6.373-2.372-9.599-4.766c-3.854-3.29-6.569-7.225-8.179-11.83
	c-1.621-4.597-2.421-9.586-2.421-14.946l0.202-4.054c0-2.468,0.253-4.871,0.751-7.211c0.521-2.314,1.128-4.532,1.896-6.613
	c0.755-2.078,1.63-3.902,2.644-5.484c1.02-1.57,2.496-3.331,4.445-5.297c1.95-1.943,4.31-3.389,7.097-4.303
	c2.765-0.914,5.367-1.528,7.803-1.841c2.426-0.322,4.884-0.474,7.332-0.474H790.518z"/>
<path fill-rule="evenodd" clip-rule="evenodd" fill="#32363F" d="M389.677,227.475c80.283,0,145.991-49.558,147.972-110.907h-33.982
	c-4.454,43.647-45.533,78.96-97.848,85.073v-90.756h-30.558v90.951c-56.254-5.846-99.99-45.428-99.99-93.131
	c0-51.347,50.686-93.281,113.091-93.857V0C307.434,0.537,241.65,51.415,241.65,113.729
	C241.65,176.373,308.141,227.475,389.677,227.475z"/>
<path fill-rule="evenodd" clip-rule="evenodd" fill="#42464F" d="M405.819,111.552v-0.668h-30.558v90.951
	c-56.254-5.846-99.99-45.428-99.99-93.131c0-51.347,50.686-93.281,113.091-93.857l-8.678-7.133
	c-67.75,4.053-121.447,49.032-121.447,103.613c0,54.008,52.567,98.599,119.311,103.473c5.054-0.144,9.686-1.234,13.425-4.351
	c0.146,0.122,0.299,0.237,0.444,0.357V126.61L405.819,111.552z"/>
<path fill-rule="evenodd" clip-rule="evenodd" fill="#FBB041" d="M535.698,95.17c-10.506-48.867-61.791-87.4-125.932-94.132v15.246
	c48.151,7.045,86.021,38.966,93.102,78.886H535.698z"/>
</svg>
