<?xml version="1.0" encoding="utf-8"?>
<!-- Generator: Adobe Illustrator 15.0.2, SVG Export Plug-In  -->
<!DOCTYPE svg PUBLIC "-//W3C//DTD SVG 1.1//EN" "http://www.w3.org/Graphics/SVG/1.1/DTD/svg11.dtd" [
	<!ENTITY ns_flows "http://ns.adobe.com/Flows/1.0/">
]>
<svg version="1.1"
	 xmlns="http://www.w3.org/2000/svg" xmlns:xlink="http://www.w3.org/1999/xlink" xmlns:a="http://ns.adobe.com/AdobeSVGViewerExtensions/3.0/"
	 x="0px" y="0px" width="800px" height="362px" viewBox="-6.45 -8.889 800 362"
	 overflow="visible" enable-background="new -6.45 -8.889 800 362" xml:space="preserve">
<defs>
</defs>
<path fill-rule="evenodd" clip-rule="evenodd" fill="#A5A9AC" d="M55.446,274.735v11.605H32.058c-4.151,0-7.459,0.986-9.902,2.969
	c-2.45,1.971-4.021,4.191-4.718,6.6c-0.697,2.42-1.187,4.646-1.501,6.683c-0.307,2.05-0.475,4.081-0.475,6.098v1.228v1.032
	c0,0.88,0.03,1.842,0.099,2.881c0.069,1.038,0.176,2.292,0.375,3.771c0.184,1.483,0.613,3.064,1.264,4.765
	c0.667,1.697,1.585,3.264,2.781,4.712c1.569,1.64,3.27,2.66,5.092,3.058c1.807,0.421,4.144,0.623,7.046,0.623h23.327v11.792H31.575
	c-4.518,0-8.339-0.41-11.502-1.186c-3.178-0.784-6.364-2.368-9.557-4.753c-3.815-3.28-6.548-7.209-8.133-11.799
	C0.804,320.23,0,315.251,0,309.917v-4.047c0-2.457,0.237-4.856,0.735-7.19c0.506-2.311,1.149-4.522,1.891-6.6
	c0.759-2.071,1.64-3.895,2.635-5.466c1.034-1.566,2.496-3.324,4.45-5.285c1.945-1.943,4.311-3.381,7.076-4.29
	c2.75-0.909,5.345-1.522,7.772-1.838c2.413-0.321,4.855-0.466,7.314-0.466H55.446L55.446,274.735z M98.362,342.55H81.008
	l-22.446-67.814h15.11L89.295,326.9l13.318-52.165h16.787l15.278,52.165l14.535-52.165h14.528l-20.747,67.814h-17.567l-14.329-50.47
	L98.362,342.55L98.362,342.55z M170.334,274.735h14.895v67.814h-14.895V274.735L170.334,274.735z M247.291,274.735h37.464v12.164
	h-35.212c-7.39,0-11.113,2.965-11.113,8.859c0,2.521,0.843,4.348,2.543,5.482c1.639,1.252,3.814,1.874,6.509,1.874h18.771
	c3.654,0,6.871,0.261,9.718,0.76c2.574,0.561,5.232,2.09,7.98,4.584c2.727,2.487,4.083,7.083,4.083,13.811
	c0,1.833-0.138,3.509-0.414,5.044c-0.292,1.541-0.858,3.346-1.7,5.42c-0.843,2.074-2.298,3.919-4.334,5.484
	c-2.038,1.56-4.481,2.672-7.307,3.299c-2.595,0.689-5.912,1.033-10,1.033h-37.917v-12.173h35.657c3.522,0,6.241-0.515,8.156-1.547
	c1.915-1.042,2.878-3.012,2.878-5.897v-1.412c-0.199-1.955-0.695-3.374-1.515-4.253c-1.08-0.938-2.282-1.581-3.638-1.894
	c-1.356-0.304-2.995-0.453-4.87-0.453h-16.834c-7.229,0-12.819-1.511-16.756-4.538c-3.942-3.024-5.904-8.073-5.904-15.196
	c0-3.561,0.583-6.781,1.785-9.615c1.203-2.818,2.833-4.999,4.9-6.553c2.068-1.541,4.466-2.613,7.169-3.242
	C239.847,275.076,243.149,274.735,247.291,274.735L247.291,274.735z M310.87,298.498c-0.75,3.021-1.133,6.361-1.133,9.991
	c0,3.594,0.628,7.81,1.846,12.69c1.21,4.881,3.669,7.972,7.298,9.252c3.654,1.275,6.741,1.932,9.259,1.932
	c2.443,0,4.803-0.351,7.062-1.048c5.406-1.959,8.776-6.07,10.093-12.342c0.872-3.211,1.324-6.608,1.324-10.178
	c0-3.658-0.299-6.634-0.912-8.919c-0.574-2.313-1.003-3.765-1.224-4.396c-0.208-0.631-0.682-1.587-1.417-2.874
	c-0.705-1.28-1.724-2.537-3.056-3.735c-1.31-1.179-2.727-2.009-4.183-2.499c-1.484-0.469-2.825-0.801-4.027-0.98
	c-1.203-0.19-2.405-0.291-3.662-0.291c-2.35,0-4.632,0.352-6.892,1.039C316.323,287.91,312.884,292.024,310.87,298.498
	L310.87,298.498z M296.335,293.697c1.463-4.96,3.401-8.649,5.858-11.036c2.458-2.407,4.726-4.146,6.787-5.238
	c2.074-1.114,4.272-1.965,6.562-2.562c2.298-0.589,4.349-0.977,6.18-1.18c1.815-0.185,3.922-0.267,6.318-0.267
	c4.526,0,8.079,0.321,10.706,0.991c2.612,0.653,4.412,1.141,5.37,1.451c0.98,0.324,2.365,0.956,4.149,1.941
	c1.792,0.972,3.378,2.221,4.757,3.727c3.208,3.079,5.544,7.095,6.977,12.031c1.448,4.936,2.181,9.972,2.181,15.133
	c0,5.097-0.733,10.165-2.181,15.227c-1.432,5.067-3.799,9.133-7.107,12.212c-3.309,3.098-7.185,5.16-11.625,6.244
	c-4.488,1.045-8.83,1.59-13.05,1.59c-4.211,0-8.255-0.475-12.16-1.412c-1.325-0.238-2.527-0.582-3.623-0.992
	c-1.111-0.411-2.474-1.042-4.104-1.919c-1.639-0.896-3.293-2.092-4.956-3.654c-1.669-1.529-3.079-3.321-4.242-5.398
	c-1.172-2.093-2.274-4.957-3.301-8.604c-1.034-3.644-1.57-8.144-1.57-13.493C294.26,303.266,294.957,298.342,296.335,293.697
	L296.335,293.697z M385.484,342.55h-14.435v-31.126c0-4.721,0.221-8.854,0.649-12.404c0.454-3.555,1.348-7.296,2.696-11.227
	c1.356-3.924,4.351-7.089,9.006-9.482c4.657-2.385,11.679-3.575,21.022-3.575h21.719v11.786h-23.028c-2.772,0-5.329,0.31-7.727,0.95
	c-2.229,0.692-3.983,1.617-5.339,2.815c-1.347,1.188-2.296,2.596-2.863,4.197c-0.567,1.596-1.003,3.104-1.279,4.489
	c-0.299,1.385-0.421,2.76-0.421,4.142h40.657v11.6h-40.657V342.55L385.484,342.55z M465.075,342.55h-14.802v-55.844h-21.689v-11.784
	h58.388v11.784h-21.896V342.55L465.075,342.55z M526.204,342.55l12.743-50.47l14.328,50.47h17.552l20.739-67.814h-14.534
	L562.511,326.9l-15.262-52.165h-16.802L517.151,326.9l-15.653-52.165h-15.102l22.469,67.814H526.204L526.204,342.55z
	 M604.104,342.55h-15.095l28.496-67.814h15.086l28.972,67.814h-15.859l-6.218-16.232h-29.523L604.104,342.55L604.104,342.55z
	 M614.579,314.36h20.279l-10.293-25.955L614.579,314.36L614.579,314.36z M680.601,342.55h-14.235v-67.814h34.99
	c1.768,0,3.561,0.093,5.421,0.271c1.861,0.195,3.931,0.56,6.234,1.097c2.297,0.533,4.442,1.789,6.449,3.759
	c2.013,1.988,3.49,4.277,4.44,6.845c0.812,2.772,1.241,5.604,1.241,8.48c0,3.217-0.49,6.112-1.433,8.688
	c-1.072,2.653-2.573,4.832-4.524,6.551c-1.962,1.743-4.505,2.984-7.645,3.734l16.696,28.39H712.3l-14.981-26.499h-16.718V342.55
	L680.601,342.55z M698.069,286.899h-17.469v17.163h17.469c2.566,0,4.718-0.156,6.433-0.475c1.746-0.322,3.278-1.132,4.588-2.449
	c1.142-1.323,1.701-3.234,1.701-5.756c0-3.649-1.11-5.963-3.348-6.978C705.199,287.404,702.068,286.899,698.069,286.899
	L698.069,286.899z M788.307,274.735v11.786h-23.388c-5.086,0-9.036,1.333-11.848,4.005c-2.796,2.671-4.183,6.624-4.183,11.845
	h39.418v11.789h-39.418c0,5.662,1.042,9.636,3.11,11.921c2.091,2.305,4.014,3.656,5.804,4.054c1.801,0.421,4.175,0.623,7.116,0.623
	h23.388v11.792H764.36c-4.527,0-8.386-0.41-11.564-1.186c-3.164-0.784-6.349-2.368-9.573-4.753c-3.836-3.28-6.54-7.209-8.147-11.799
	c-1.609-4.582-2.414-9.562-2.414-14.896l0.199-4.047c0-2.457,0.261-4.856,0.751-7.19c0.514-2.311,1.118-4.522,1.884-6.6
	c0.751-2.071,1.633-3.895,2.643-5.466c1.019-1.566,2.48-3.324,4.434-5.285c1.945-1.943,4.297-3.381,7.068-4.29
	c2.766-0.909,5.361-1.522,7.789-1.838c2.412-0.321,4.871-0.466,7.307-0.466H788.307z"/>
<path fill-rule="evenodd" clip-rule="evenodd" fill="#A5A9AC" d="M388.579,226.846c80.066,0,145.589-49.423,147.564-110.602h-33.895
	c-4.427,43.521-45.406,78.733-97.565,84.834v-90.502h-30.48v90.698c-56.088-5.824-99.702-45.296-99.702-92.872
	c0-51.207,50.545-93.025,112.768-93.591V0c-80.702,0.54-146.295,51.279-146.295,113.414
	C240.974,175.888,307.279,226.846,388.579,226.846z"/>
<path fill-rule="evenodd" clip-rule="evenodd" fill="#B2B5B7" d="M404.684,111.247v-0.671h-30.48v90.698
	c-56.088-5.824-99.702-45.296-99.702-92.872c0-51.207,50.545-93.025,112.768-93.591L378.63,7.7
	c-67.577,4.04-121.115,48.886-121.115,103.317c0,53.856,52.42,98.324,118.978,103.186c5.031-0.141,9.65-1.23,13.396-4.342
	c0.144,0.127,0.282,0.242,0.442,0.361v-83.969L404.684,111.247z"/>
<path fill-rule="evenodd" clip-rule="evenodd" fill="#FBB041" d="M534.199,94.913C523.722,46.176,472.581,7.754,408.611,1.038
	v15.205c48.018,7.023,85.789,38.857,92.849,78.669H534.199z"/>
</svg>
